Running merger.

Choose one of saved models, or enter a name to create a new model.
[r] : rename
[d] : delete

[0] : new - latest
[1] : dr512V3 
[2] : dr384 
 : 0
Loading new_SAEHD model...

Choose one or several GPU idxs (separated by comma).

[CPU] : CPU
  [0] : Tesla T4

[0] Which GPU indexes to choose? : 0

Initializing models:   0%|          | 0/4 [00:00<?, ?it/s]Initializing models:  25%|##5       | 1/4 [00:00<00:00,  3.91it/s]Initializing models:  50%|#####     | 2/4 [00:01<00:01,  1.47it/s]Initializing models:  75%|#######5  | 3/4 [00:02<00:00,  1.38it/s]Initializing models: 100%|##########| 4/4 [00:02<00:00,  1.29it/s]Initializing models: 100%|##########| 4/4 [00:02<00:00,  1.39it/s]
=========== Model Summary ============
==                                  ==
==            Model name: new_SAEHD ==
==                                  ==
==     Current iteration: 564894    ==
==                                  ==
==--------- Model Options ----------==
==                                  ==
==            resolution: 320       ==
==             face_type: wf        ==
==     models_opt_on_gpu: True      ==
==                 archi: liae-udt  ==
==               ae_dims: 512       ==
==                e_dims: 64        ==
==                d_dims: 64        ==
==           d_mask_dims: 32        ==
==       masked_training: True      ==
==       eyes_mouth_prio: True      ==
==           uniform_yaw: False     ==
==         blur_out_mask: False     ==
==             adabelief: True      ==
==            lr_dropout: y         ==
==           random_warp: False     ==
==      random_hsv_power: 0.05      ==
==       true_face_power: 0.0       ==
==      face_style_power: 0.0       ==
==        bg_style_power: 0.0       ==
==               ct_mode: none      ==
==              clipgrad: True      ==
==              pretrain: False     ==
==       autobackup_hour: 0         ==
== write_preview_history: False     ==
==           target_iter: 0         ==
==       random_src_flip: True      ==
==       random_dst_flip: False     ==
==            batch_size: 8         ==
==             gan_power: 0.0       ==
==        gan_patch_size: 40        ==
==              gan_dims: 16        ==
==                                  ==
==----------- Running On -----------==
==                                  ==
==          Device index: 0         ==
==                  Name: Tesla T4  ==
==                  VRAM: 13.64GB   ==
==                                  ==
======================================
/home/ubuntu/quyennv/DeepFaceLab_Linux/DeepFaceLab/Retinaface_Mediapipe/weights/mobilenetV1X0.25_pretrain.tar
Loading pretrained model from /home/ubuntu/quyennv/DeepFaceLab_Linux/DeepFaceLab/Retinaface_Mediapipe/weights/mobilenet0.25_Final.pth
remove prefix 'module.'
Missing keys:0
Unused checkpoint keys:0
Used keys:300
Finished loading model!
Loading pretrained model from /home/ubuntu/quyennv/DeepFaceLab_Linux/DeepFaceLab/Retinaface_Mediapipe/weights/Resnet50_Final.pth
remove prefix 'module.'
Missing keys:0
Unused checkpoint keys:0
Used keys:456
INFO: Created TensorFlow Lite XNNPACK delegate for CPU.
  0%|          | 0/16791 [00:00<?, ?it/s]Traceback (most recent call last):
  File "Lipsync_DFL_retina_mp.py", line 386, in <module>
    ret2,frame_ori = capFrame.read()
KeyboardInterrupt
Input #0, rawvideo, from 'pipe:0':
  Duration: N/A, bitrate: 1492992 kb/s
  Stream #0:0: Video: rawvideo (RGB[24] / 0x18424752), rgb24, 1920x1080, 1492992 kb/s, 30 tbr, 30 tbn, 30 tbc
Stream mapping:
  Stream #0:0 -> #0:0 (rawvideo (native) -> h264 (libx264))
Finishing stream 0:0 without any data written to it.
[libx264 @ 0x56098ab5e440] using cpu capabilities: MMX2 SSE2Fast SSSE3 SSE4.2 AVX FMA3 BMI2 AVX2 AVX512
[libx264 @ 0x56098ab5e440] profile High, level 4.0, 4:2:0, 8-bit
[libx264 @ 0x56098ab5e440] 264 - core 164 r3094 bfc87b7 - H.264/MPEG-4 AVC codec - Copyleft 2003-2022 - http://www.videolan.org/x264.html - options: cabac=1 ref=3 deblock=1:0:0 analyse=0x3:0x113 me=hex subme=7 psy=1 psy_rd=1.00:0.00 mixed_ref=1 me_range=16 chroma_me=1 trellis=1 8x8dct=1 cqm=0 deadzone=21,11 fast_pskip=1 chroma_qp_offset=-2 threads=12 lookahead_threads=2 sliced_threads=0 nr=0 decimate=1 interlaced=0 bluray_compat=0 constrained_intra=0 bframes=3 b_pyramid=2 b_adapt=1 b_bias=0 direct=1 weightb=1 open_gop=0 weightp=2 keyint=250 keyint_min=25 scenecut=40 intra_refresh=0 rc_lookahead=40 rc=crf mbtree=1 crf=17.0 qcomp=0.60 qpmin=0 qpmax=69 qpstep=4 ip_ratio=1.40 aq=1:1.00
Output #0, mp4, to '/home/ubuntu/quyennv/DeepFaceLab_Linux/DeepFaceLab/test_video/DFLab_Wav2lip_fullmouth_4.mp4':
  Metadata:
    encoder         : Lavf58.76.100
  Stream #0:0: Video: h264 (avc1 / 0x31637661), yuv420p, 1920x1080, q=2-31, 30 fps, 15360 tbn
    Metadata:
      encoder         : Lavc58.134.100 libx264
    Side data:
      cpb: bitrate max/min/avg: 0/0/0 buffer size: 0 vbv_delay: N/A
frame=    0 fps=0.0 q=0.0 Lsize=       0kB time=00:00:00.00 bitrate=N/A speed=   0x    
video:0kB audio:0kB subtitle:0kB other streams:0kB global headers:0kB muxing overhead: unknown
Exiting normally, received signal 2.
